<?xml version="1.0" encoding="UTF-8" standalone="no"?><svg xmlns="http://www.w3.org/2000/svg" xmlns:xlink="http://www.w3.org/1999/xlink" contentScriptType="application/ecmascript" contentStyleType="text/css" height="558px" preserveAspectRatio="none" style="width:969px;height:558px;" version="1.1" viewBox="0 0 969 558" width="969px" zoomAndPan="magnify"><defs><filter height="300%" id="fhxgqd93s9zqd" width="300%" x="-1" y="-1"><feGaussianBlur result="blurOut" stdDeviation="2.0"/><feColorMatrix in="blurOut" result="blurOut2" type="matrix" values="0 0 0 0 0 0 0 0 0 0 0 0 0 0 0 0 0 0 .4 0"/><feOffset dx="4.0" dy="4.0" in="blurOut2" result="blurOut3"/><feBlend in="SourceGraphic" in2="blurOut3" mode="normal"/></filter></defs><g><!--MD5=[2973e496490ced9c9c7e8ce7ae66a91c]
class Analyze--><rect fill="#F8F8F8" filter="url(#fhxgqd93s9zqd)" height="125.7305" id="Analyze" style="stroke: #383838; stroke-width: 1.5;" width="369" x="453" y="8"/><ellipse cx="610.75" cy="24" fill="#C2C2C2" rx="11" ry="11" style="stroke: #383838; stroke-width: 1.0;"/><path d="M613.2231,30.1431 Q612.6421,30.4419 612.0029,30.5913 Q611.3638,30.7407 610.6582,30.7407 Q608.1514,30.7407 606.8315,29.0889 Q605.5117,27.437 605.5117,24.3159 Q605.5117,21.1865 606.8315,19.5347 Q608.1514,17.8828 610.6582,17.8828 Q611.3638,17.8828 612.0112,18.0322 Q612.6587,18.1816 613.2231,18.4805 L613.2231,21.2031 Q612.5923,20.6221 611.9988,20.3523 Q611.4053,20.0825 610.7744,20.0825 Q609.4297,20.0825 608.7449,21.1492 Q608.0601,22.2158 608.0601,24.3159 Q608.0601,26.4077 608.7449,27.4744 Q609.4297,28.541 610.7744,28.541 Q611.4053,28.541 611.9988,28.2712 Q612.5923,28.0015 613.2231,27.4204 Z "/><text fill="#000000" font-family="sans-serif" font-size="12" lengthAdjust="spacingAndGlyphs" textLength="45" x="631.25" y="28.5352">Analyze</text><line style="stroke: #383838; stroke-width: 1.5;" x1="454" x2="821" y1="40" y2="40"/><ellipse cx="464" cy="67.9551" fill="none" rx="3" ry="3" style="stroke: #545454; stroke-width: 1.0;"/><text fill="#000000" font-family="sans-serif" font-size="11" lengthAdjust="spacingAndGlyphs" textLength="116" x="473" y="71.5898">repo: git2::Repository</text><ellipse cx="464" cy="80.9102" fill="none" rx="3" ry="3" style="stroke: #545454; stroke-width: 1.0;"/><text fill="#000000" font-family="sans-serif" font-size="11" lengthAdjust="spacingAndGlyphs" textLength="91" x="473" y="84.5449">stats: crate::Stats</text><line style="stroke: #383838; stroke-width: 1.0; stroke-dasharray: 1.0,2.0;" x1="454" x2="610" y1="54.4775" y2="54.4775"/><text fill="#000000" font-family="sans-serif" font-size="11" lengthAdjust="spacingAndGlyphs" textLength="55" x="610" y="58.1348">Properties</text><line style="stroke: #383838; stroke-width: 1.0; stroke-dasharray: 1.0,2.0;" x1="665" x2="821" y1="54.4775" y2="54.4775"/><ellipse cx="464" cy="110.8203" fill="#A6A6A6" rx="3" ry="3" style="stroke: #545454; stroke-width: 1.0;"/><text fill="#000000" font-family="sans-serif" font-size="11" lengthAdjust="spacingAndGlyphs" textLength="191" x="473" y="114.4551">fn new() -&gt; Result&lt;Analyze, Error&gt;</text><ellipse cx="464" cy="123.7754" fill="#A6A6A6" rx="3" ry="3" style="stroke: #545454; stroke-width: 1.0;"/><text fill="#000000" font-family="sans-serif" font-size="11" lengthAdjust="spacingAndGlyphs" textLength="343" x="473" y="127.4102">fn commit(&amp;mut self, oid: Option&lt;String&gt;) -&gt; Result&lt;(), Error&gt;</text><line style="stroke: #383838; stroke-width: 1.0; stroke-dasharray: 1.0,2.0;" x1="454" x2="614.5" y1="97.3428" y2="97.3428"/><text fill="#000000" font-family="sans-serif" font-size="11" lengthAdjust="spacingAndGlyphs" textLength="46" x="614.5" y="101">Methods</text><line style="stroke: #383838; stroke-width: 1.0; stroke-dasharray: 1.0,2.0;" x1="660.5" x2="821" y1="97.3428" y2="97.3428"/><!--MD5=[cc7b86182a2d491cea4d0231be410c3d]
class Stats--><rect fill="#F8F8F8" filter="url(#fhxgqd93s9zqd)" height="216.416" id="Stats" style="stroke: #383838; stroke-width: 1.5;" width="561" x="190" y="195"/><ellipse cx="452.75" cy="211" fill="#C2C2C2" rx="11" ry="11" style="stroke: #383838; stroke-width: 1.0;"/><path d="M455.2231,217.1431 Q454.6421,217.4419 454.0029,217.5913 Q453.3638,217.7407 452.6582,217.7407 Q450.1514,217.7407 448.8315,216.0889 Q447.5117,214.437 447.5117,211.3159 Q447.5117,208.1865 448.8315,206.5347 Q450.1514,204.8828 452.6582,204.8828 Q453.3638,204.8828 454.0112,205.0322 Q454.6587,205.1816 455.2231,205.4805 L455.2231,208.2031 Q454.5923,207.6221 453.9988,207.3523 Q453.4053,207.0825 452.7744,207.0825 Q451.4297,207.0825 450.7449,208.1492 Q450.0601,209.2158 450.0601,211.3159 Q450.0601,213.4077 450.7449,214.4744 Q451.4297,215.541 452.7744,215.541 Q453.4053,215.541 453.9988,215.2712 Q454.5923,215.0015 455.2231,214.4204 Z "/><text fill="#000000" font-family="sans-serif" font-size="12" lengthAdjust="spacingAndGlyphs" textLength="27" x="473.25" y="215.5352">Stats</text><line style="stroke: #383838; stroke-width: 1.5;" x1="191" x2="750" y1="227" y2="227"/><ellipse cx="201" cy="254.9551" fill="none" rx="3" ry="3" style="stroke: #545454; stroke-width: 1.0;"/><text fill="#000000" font-family="sans-serif" font-size="11" lengthAdjust="spacingAndGlyphs" textLength="242" x="210" y="258.5898">contributors : HashMap&lt;Email, Contributor&gt;</text><ellipse cx="201" cy="267.9102" fill="none" rx="3" ry="3" style="stroke: #545454; stroke-width: 1.0;"/><text fill="#000000" font-family="sans-serif" font-size="11" lengthAdjust="spacingAndGlyphs" textLength="212" x="210" y="271.5449">commits: HashMap&lt;Oid, CommitStats&gt;</text><line style="stroke: #383838; stroke-width: 1.0; stroke-dasharray: 1.0,2.0;" x1="191" x2="443" y1="241.4775" y2="241.4775"/><text fill="#000000" font-family="sans-serif" font-size="11" lengthAdjust="spacingAndGlyphs" textLength="55" x="443" y="245.1348">Properties</text><line style="stroke: #383838; stroke-width: 1.0; stroke-dasharray: 1.0,2.0;" x1="498" x2="750" y1="241.4775" y2="241.4775"/><ellipse cx="201" cy="297.8203" fill="#A6A6A6" rx="3" ry="3" style="stroke: #545454; stroke-width: 1.0;"/><text fill="#000000" font-family="sans-serif" font-size="11" lengthAdjust="spacingAndGlyphs" textLength="83" x="210" y="301.4551">fn new() -&gt; Self</text><ellipse cx="201" cy="310.7754" fill="#A6A6A6" rx="3" ry="3" style="stroke: #545454; stroke-width: 1.0;"/><text fill="#000000" font-family="sans-serif" font-size="11" lengthAdjust="spacingAndGlyphs" textLength="535" x="210" y="314.4102">fn process_diff(&amp;mut self, repo: &amp;Repository, commit: &amp;Commit&lt;'_&gt;, diff: Diff) -&gt; Result&lt;(), Error&gt;</text><ellipse cx="201" cy="323.7305" fill="#A6A6A6" rx="3" ry="3" style="stroke: #545454; stroke-width: 1.0;"/><text fill="#000000" font-family="sans-serif" font-size="11" lengthAdjust="spacingAndGlyphs" textLength="500" x="210" y="327.3652">fn process_commit(&amp;mut self, repo: &amp;Repository, commit: Commit&lt;'_&gt;) -&gt; Result&lt;(), Error&gt;</text><ellipse cx="201" cy="336.6855" fill="#A6A6A6" rx="3" ry="3" style="stroke: #545454; stroke-width: 1.0;"/><text fill="#000000" font-family="sans-serif" font-size="11" lengthAdjust="spacingAndGlyphs" textLength="195" x="210" y="340.3203">fn insert_contributor_from_commit(</text><ellipse cx="201" cy="349.6406" fill="#A6A6A6" rx="3" ry="3" style="stroke: #545454; stroke-width: 1.0;"/><text fill="#000000" font-family="sans-serif" font-size="11" lengthAdjust="spacingAndGlyphs" textLength="308" x="210" y="353.2754">fn get_contributor_by_email(&amp;self, email: &amp;str) -&gt; Option</text><ellipse cx="201" cy="362.5957" fill="#A6A6A6" rx="3" ry="3" style="stroke: #545454; stroke-width: 1.0;"/><text fill="#000000" font-family="sans-serif" font-size="11" lengthAdjust="spacingAndGlyphs" textLength="272" x="210" y="366.2305">fn get_contributor_score(&amp;self, email: &amp;str) -&gt; f64</text><ellipse cx="201" cy="375.5508" fill="#A6A6A6" rx="3" ry="3" style="stroke: #545454; stroke-width: 1.0;"/><text fill="#000000" font-family="sans-serif" font-size="11" lengthAdjust="spacingAndGlyphs" textLength="380" x="210" y="379.1855">fn update_contributor_score(&amp;mut self, email: &amp;str, points: f64) -&gt; f64</text><ellipse cx="201" cy="388.5059" fill="#A6A6A6" rx="3" ry="3" style="stroke: #545454; stroke-width: 1.0;"/><text fill="#000000" font-family="sans-serif" font-size="11" lengthAdjust="spacingAndGlyphs" textLength="283" x="210" y="392.1406">fn calculate_rewards(&amp;mut self) -&gt; Result&lt;(), Error&gt;</text><ellipse cx="201" cy="401.4609" fill="#A6A6A6" rx="3" ry="3" style="stroke: #545454; stroke-width: 1.0;"/><text fill="#000000" font-family="sans-serif" font-size="11" lengthAdjust="spacingAndGlyphs" textLength="248" x="210" y="405.0957">fn get_commit_weight(&amp;self, oid: &amp;Oid) -&gt; f64</text><line style="stroke: #383838; stroke-width: 1.0; stroke-dasharray: 1.0,2.0;" x1="191" x2="447.5" y1="284.3428" y2="284.3428"/><text fill="#000000" font-family="sans-serif" font-size="11" lengthAdjust="spacingAndGlyphs" textLength="46" x="447.5" y="288">Methods</text><line style="stroke: #383838; stroke-width: 1.0; stroke-dasharray: 1.0,2.0;" x1="493.5" x2="750" y1="284.3428" y2="284.3428"/><!--MD5=[e330ca7a64883974ecc468a95bce661e]
class git2::Repository--><rect fill="#F8F8F8" filter="url(#fhxgqd93s9zqd)" height="59.4326" id="git2::Repository" style="stroke: #383838; stroke-width: 1.5;" width="311" x="647" y="488"/><ellipse cx="752.75" cy="504" fill="#C2C2C2" rx="11" ry="11" style="stroke: #383838; stroke-width: 1.0;"/><path d="M755.2231,510.1431 Q754.6421,510.4419 754.0029,510.5913 Q753.3638,510.7407 752.6582,510.7407 Q750.1514,510.7407 748.8315,509.0889 Q747.5117,507.437 747.5117,504.3159 Q747.5117,501.1865 748.8315,499.5347 Q750.1514,497.8828 752.6582,497.8828 Q753.3638,497.8828 754.0112,498.0322 Q754.6587,498.1816 755.2231,498.4805 L755.2231,501.2031 Q754.5923,500.6221 753.9988,500.3523 Q753.4053,500.0825 752.7744,500.0825 Q751.4297,500.0825 750.7449,501.1492 Q750.0601,502.2158 750.0601,504.3159 Q750.0601,506.4077 750.7449,507.4744 Q751.4297,508.541 752.7744,508.541 Q753.4053,508.541 753.9988,508.2712 Q754.5923,508.0015 755.2231,507.4204 Z "/><text fill="#000000" font-family="sans-serif" font-size="12" lengthAdjust="spacingAndGlyphs" textLength="91" x="773.25" y="508.5352">git2::Repository</text><line style="stroke: #383838; stroke-width: 1.5;" x1="648" x2="957" y1="520" y2="520"/><line style="stroke: #383838; stroke-width: 1.0; stroke-dasharray: 1.0,2.0;" x1="648" x2="651" y1="534.4775" y2="534.4775"/><text fill="#000000" font-family="sans-serif" font-size="11" lengthAdjust="spacingAndGlyphs" textLength="303" x="651" y="538.1348">https://docs.rs/git2/0.13.6/git2/struct.Repository.html</text><line style="stroke: #383838; stroke-width: 1.0; stroke-dasharray: 1.0,2.0;" x1="954" x2="957" y1="534.4775" y2="534.4775"/><!--MD5=[9f3423cc7318eecfbd25b8601cfa8db9]
class git2::Commit--><rect fill="#F8F8F8" filter="url(#fhxgqd93s9zqd)" height="59.4326" id="git2::Commit" style="stroke: #383838; stroke-width: 1.5;" width="295" x="6" y="488"/><ellipse cx="112.25" cy="504" fill="#C2C2C2" rx="11" ry="11" style="stroke: #383838; stroke-width: 1.0;"/><path d="M114.7231,510.1431 Q114.1421,510.4419 113.5029,510.5913 Q112.8638,510.7407 112.1582,510.7407 Q109.6514,510.7407 108.3315,509.0889 Q107.0117,507.437 107.0117,504.3159 Q107.0117,501.1865 108.3315,499.5347 Q109.6514,497.8828 112.1582,497.8828 Q112.8638,497.8828 113.5112,498.0322 Q114.1587,498.1816 114.7231,498.4805 L114.7231,501.2031 Q114.0923,500.6221 113.4988,500.3523 Q112.9053,500.0825 112.2744,500.0825 Q110.9297,500.0825 110.2449,501.1492 Q109.5601,502.2158 109.5601,504.3159 Q109.5601,506.4077 110.2449,507.4744 Q110.9297,508.541 112.2744,508.541 Q112.9053,508.541 113.4988,508.2712 Q114.0923,508.0015 114.7231,507.4204 Z "/><text fill="#000000" font-family="sans-serif" font-size="12" lengthAdjust="spacingAndGlyphs" textLength="74" x="132.75" y="508.5352">git2::Commit</text><line style="stroke: #383838; stroke-width: 1.5;" x1="7" x2="300" y1="520" y2="520"/><line style="stroke: #383838; stroke-width: 1.0; stroke-dasharray: 1.0,2.0;" x1="7" x2="10" y1="534.4775" y2="534.4775"/><text fill="#000000" font-family="sans-serif" font-size="11" lengthAdjust="spacingAndGlyphs" textLength="287" x="10" y="538.1348">https://docs.rs/git2/0.13.6/git2/struct.Commit.html</text><line style="stroke: #383838; stroke-width: 1.0; stroke-dasharray: 1.0,2.0;" x1="297" x2="300" y1="534.4775" y2="534.4775"/><!--MD5=[c4e50ea42be912eced59b68e5961919a]
class git2::Diff--><rect fill="#F8F8F8" filter="url(#fhxgqd93s9zqd)" height="59.4326" id="git2::Diff" style="stroke: #383838; stroke-width: 1.5;" width="272" x="336.5" y="488"/><ellipse cx="443.25" cy="504" fill="#C2C2C2" rx="11" ry="11" style="stroke: #383838; stroke-width: 1.0;"/><path d="M445.7231,510.1431 Q445.1421,510.4419 444.5029,510.5913 Q443.8638,510.7407 443.1582,510.7407 Q440.6514,510.7407 439.3315,509.0889 Q438.0117,507.437 438.0117,504.3159 Q438.0117,501.1865 439.3315,499.5347 Q440.6514,497.8828 443.1582,497.8828 Q443.8638,497.8828 444.5112,498.0322 Q445.1587,498.1816 445.7231,498.4805 L445.7231,501.2031 Q445.0923,500.6221 444.4988,500.3523 Q443.9053,500.0825 443.2744,500.0825 Q441.9297,500.0825 441.2449,501.1492 Q440.5601,502.2158 440.5601,504.3159 Q440.5601,506.4077 441.2449,507.4744 Q441.9297,508.541 443.2744,508.541 Q443.9053,508.541 444.4988,508.2712 Q445.0923,508.0015 445.7231,507.4204 Z "/><text fill="#000000" font-family="sans-serif" font-size="12" lengthAdjust="spacingAndGlyphs" textLength="50" x="463.75" y="508.5352">git2::Diff</text><line style="stroke: #383838; stroke-width: 1.5;" x1="337.5" x2="607.5" y1="520" y2="520"/><line style="stroke: #383838; stroke-width: 1.0; stroke-dasharray: 1.0,2.0;" x1="337.5" x2="340.5" y1="534.4775" y2="534.4775"/><text fill="#000000" font-family="sans-serif" font-size="11" lengthAdjust="spacingAndGlyphs" textLength="264" x="340.5" y="538.1348">https://docs.rs/git2/0.13.6/git2/struct.Diff.html</text><line style="stroke: #383838; stroke-width: 1.0; stroke-dasharray: 1.0,2.0;" x1="604.5" x2="607.5" y1="534.4775" y2="534.4775"/><!--MD5=[2745bda1ded0349592db12f17a720bea]
link Analyze to git2::Repository--><path d="M786.5,134.03 C786.5,134.03 786.5,467.81 786.5,467.81 " fill="none" id="Analyze-&gt;git2::Repository" style="stroke: #383838; stroke-width: 1.0;"/><polygon fill="none" points="793.5,467.81,786.5,487.81,779.5,467.81,793.5,467.81" style="stroke: #383838; stroke-width: 1.0;"/><!--MD5=[6c1775004a6db0e049d0b21e1d82c743]
link Analyze to Stats--><path d="M602,134.09 C602,134.09 602,174.82 602,174.82 " fill="none" id="Analyze-&gt;Stats" style="stroke: #383838; stroke-width: 1.0;"/><polygon fill="none" points="609,174.82,602,194.82,595,174.82,609,174.82" style="stroke: #383838; stroke-width: 1.0;"/><!--MD5=[4f1c0f3b9eb26f8bad3219f81dda9bca]
link Stats to git2::Repository--><path d="M699,411.19 C699,411.19 699,482.99 699,482.99 " fill="none" id="Stats-&gt;git2::Repository" style="stroke: #383838; stroke-width: 1.0;"/><polygon fill="#383838" points="699,487.99,703,478.99,699,482.99,695,478.99,699,487.99" style="stroke: #383838; stroke-width: 1.0;"/><text fill="#000000" font-family="sans-serif" font-size="13" lengthAdjust="spacingAndGlyphs" textLength="201" x="558.5" y="454.5684">Borrows `repo` from `Analyze`</text><!--MD5=[a188ac2cb6cbe766379f629b68d9bed2]
link Stats to git2::Commit--><path d="M245.5,411.19 C245.5,411.19 245.5,482.99 245.5,482.99 " fill="none" id="Stats-&gt;git2::Commit" style="stroke: #383838; stroke-width: 1.0;"/><polygon fill="#383838" points="245.5,487.99,249.5,478.99,245.5,482.99,241.5,478.99,245.5,487.99" style="stroke: #383838; stroke-width: 1.0;"/><!--MD5=[594f3c925066001f0abba141a89e425b]
link Stats to git2::Diff--><path d="M472.5,411.19 C472.5,411.19 472.5,482.99 472.5,482.99 " fill="none" id="Stats-&gt;git2::Diff" style="stroke: #383838; stroke-width: 1.0;"/><polygon fill="#383838" points="472.5,487.99,476.5,478.99,472.5,482.99,468.5,478.99,472.5,487.99" style="stroke: #383838; stroke-width: 1.0;"/></g></svg>