<?xml version="1.0" encoding="UTF-8" standalone="no"?><svg xmlns="http://www.w3.org/2000/svg" xmlns:xlink="http://www.w3.org/1999/xlink" contentScriptType="application/ecmascript" contentStyleType="text/css" height="212px" preserveAspectRatio="none" style="width:477px;height:212px;" version="1.1" viewBox="0 0 477 212" width="477px" zoomAndPan="magnify"><defs><filter height="300%" id="fmmb7nsmxdxb9" width="300%" x="-1" y="-1"><feGaussianBlur result="blurOut" stdDeviation="2.0"/><feColorMatrix in="blurOut" result="blurOut2" type="matrix" values="0 0 0 0 0 0 0 0 0 0 0 0 0 0 0 0 0 0 .4 0"/><feOffset dx="4.0" dy="4.0" in="blurOut2" result="blurOut3"/><feBlend in="SourceGraphic" in2="blurOut3" mode="normal"/></filter></defs><g><rect fill="#FFFFFF" filter="url(#fmmb7nsmxdxb9)" height="114.9316" style="stroke: #383838; stroke-width: 1.0;" width="10" x="68" y="48.4883"/><rect fill="#FFFFFF" filter="url(#fmmb7nsmxdxb9)" height="51.3105" style="stroke: #383838; stroke-width: 1.0;" width="10" x="216.5" y="112.1094"/><line style="stroke: #383838; stroke-width: 1.0; stroke-dasharray: 5.0,5.0;" x1="73" x2="73" y1="38.4883" y2="172.4199"/><line style="stroke: #383838; stroke-width: 1.0; stroke-dasharray: 5.0,5.0;" x1="221" x2="221" y1="38.4883" y2="172.4199"/><rect fill="#F8F8F8" filter="url(#fmmb7nsmxdxb9)" height="30.4883" style="stroke: #383838; stroke-width: 1.5;" width="126" x="8" y="3"/><text fill="#000000" font-family="sans-serif" font-size="14" lengthAdjust="spacingAndGlyphs" textLength="112" x="15" y="23.5352">Local Repository</text><rect fill="#F8F8F8" filter="url(#fmmb7nsmxdxb9)" height="30.4883" style="stroke: #383838; stroke-width: 1.5;" width="126" x="8" y="171.4199"/><text fill="#000000" font-family="sans-serif" font-size="14" lengthAdjust="spacingAndGlyphs" textLength="112" x="15" y="191.9551">Local Repository</text><rect fill="#F8F8F8" filter="url(#fmmb7nsmxdxb9)" height="30.4883" style="stroke: #383838; stroke-width: 1.5;" width="143" x="148" y="3"/><text fill="#000000" font-family="sans-serif" font-size="14" lengthAdjust="spacingAndGlyphs" textLength="129" x="155" y="23.5352">Remote Repository</text><rect fill="#F8F8F8" filter="url(#fmmb7nsmxdxb9)" height="30.4883" style="stroke: #383838; stroke-width: 1.5;" width="143" x="148" y="171.4199"/><text fill="#000000" font-family="sans-serif" font-size="14" lengthAdjust="spacingAndGlyphs" textLength="129" x="155" y="191.9551">Remote Repository</text><rect fill="#FFFFFF" filter="url(#fmmb7nsmxdxb9)" height="114.9316" style="stroke: #383838; stroke-width: 1.0;" width="10" x="68" y="48.4883"/><rect fill="#FFFFFF" filter="url(#fmmb7nsmxdxb9)" height="51.3105" style="stroke: #383838; stroke-width: 1.0;" width="10" x="216.5" y="112.1094"/><line style="stroke: #383838; stroke-width: 1.0;" x1="78" x2="120" y1="69.7988" y2="69.7988"/><line style="stroke: #383838; stroke-width: 1.0;" x1="120" x2="120" y1="69.7988" y2="82.7988"/><line style="stroke: #383838; stroke-width: 1.0;" x1="79" x2="120" y1="82.7988" y2="82.7988"/><polygon fill="#383838" points="89,78.7988,79,82.7988,89,86.7988,85,82.7988" style="stroke: #383838; stroke-width: 1.0;"/><text fill="#000000" font-family="sans-serif" font-size="13" lengthAdjust="spacingAndGlyphs" textLength="86" x="85" y="65.0566">Commit Work</text><polygon fill="#383838" points="204.5,108.1094,214.5,112.1094,204.5,116.1094,208.5,112.1094" style="stroke: #383838; stroke-width: 1.0;"/><line style="stroke: #383838; stroke-width: 1.0;" x1="78" x2="210.5" y1="112.1094" y2="112.1094"/><text fill="#000000" font-family="sans-serif" font-size="13" lengthAdjust="spacingAndGlyphs" textLength="84" x="85" y="107.3672">Push Commit</text><line style="stroke: #383838; stroke-width: 1.0;" x1="226.5" x2="268.5" y1="141.4199" y2="141.4199"/><line style="stroke: #383838; stroke-width: 1.0;" x1="268.5" x2="268.5" y1="141.4199" y2="154.4199"/><line style="stroke: #383838; stroke-width: 1.0;" x1="227.5" x2="268.5" y1="154.4199" y2="154.4199"/><polygon fill="#383838" points="237.5,150.4199,227.5,154.4199,237.5,158.4199,233.5,154.4199" style="stroke: #383838; stroke-width: 1.0;"/><text fill="#000000" font-family="sans-serif" font-size="13" lengthAdjust="spacingAndGlyphs" textLength="232" x="233.5" y="136.6777">Run `git ventures analyze` on Merge</text></g></svg>